<svg height="512pt" viewBox="-66 0 512 512" width="512pt" xmlns="http://www.w3.org/2000/svg"><path d="m190.453125 0c-105.015625 0-190.453125 85.4375-190.453125 190.453125 0 33.394531 8.8125 66.28125 25.484375 95.09375 14.707031 25.417969 35.207031 47.222656 59.617187 63.492187v92.277344c0 8.378906 6.789063 15.167969 15.167969 15.167969h4.113281v40.347656c0 8.375 6.792969 15.167969 15.167969 15.167969h141.800781c8.378907 0 15.167969-6.792969 15.167969-15.167969v-40.347656h4.113281c8.378907 0 15.171876-6.789063 15.171876-15.167969v-92.277344c24.410156-16.269531 44.910156-38.074218 59.617187-63.492187 16.667969-28.816406 25.480469-61.699219 25.480469-95.09375.003906-105.015625-85.433594-190.453125-190.449219-190.453125zm-15.171875 225.472656-33.679688-32.78125c.886719-6.980468 2.472657-13.796875 4.574219-20.382812l29.105469 28.328125zm30.339844-106.324218c1.765625 2.277343 3.554687 4.671874 5.335937 7.175781 24.097657 33.828125 29.15625 61.550781 29.15625 78.855469 0 33.894531-18.207031 64.957031-34.492187 85.960937zm-30.339844 39.15625-15.902344-15.476563c5.035156-8.78125 10.574219-16.734375 15.902344-23.613281zm0 109.503906v23.394531c-1.765625-2.273437-3.550781-4.667969-5.335938-7.171875-11.503906-16.152344-18.664062-30.910156-23.011718-43.8125zm90.183594 127.996094v30.34375h-150.027344v-30.34375zm-19.28125 85.855468h-111.460938v-25.175781h111.460938zm82.976562-211.308594c-13.597656 23.503907-33.085937 43.335938-56.355468 57.355469-4.554688 2.746094-7.339844 7.675781-7.339844 12.992188v24.765625h-59.84375v-28.800782c16.394531-15.78125 64.828125-67.789062 64.828125-131.488281 0-75.039062-67.230469-133.867187-70.09375-136.335937-5.691407-4.90625-14.117188-4.90625-19.8125 0-2.859375 2.46875-70.09375 61.300781-70.09375 136.335937 0 63.695313 48.433593 115.707031 64.832031 131.488281v28.800782h-59.84375v-24.765625c0-5.316407-2.785156-10.246094-7.34375-12.992188-23.269531-14.019531-42.753906-33.851562-56.355469-57.355469-14.003906-24.203124-21.402343-51.828124-21.402343-79.898437.003906-88.289063 71.828124-160.113281 160.117187-160.113281 88.285156 0 160.113281 71.824218 160.113281 160.113281 0 28.070313-7.402344 55.695313-21.40625 79.898437zm0 0"/></svg>