<svg height="512pt" viewBox="-67 0 512 512" width="512pt" xmlns="http://www.w3.org/2000/svg"><path d="m258.796875 426.988281h-140.414063c-8.292968 0-15.019531 6.722657-15.019531 15.019531v54.972657c0 8.292969 6.726563 15.019531 15.019531 15.019531h140.414063c8.292969 0 15.019531-6.726562 15.019531-15.019531v-54.972657c0-8.296874-6.722656-15.019531-15.019531-15.019531zm0 0" fill="#e8dfda"/><path d="m258.796875 426.988281h-70.207031v85.011719h70.207031c8.292969 0 15.019531-6.726562 15.019531-15.019531v-54.972657c0-8.296874-6.722656-15.019531-15.019531-15.019531zm0 0" fill="#d9d0cb"/><path d="m188.589844 0c-103.988282 0-188.589844 84.601562-188.589844 188.589844 0 33.070312 8.726562 65.632812 25.234375 94.164062 14.5625 25.167969 34.863281 46.761719 59.035156 62.871094v91.375c0 8.296875 6.722657 15.023438 15.019531 15.023438h178.601563c8.296875 0 15.019531-6.726563 15.019531-15.023438v-91.375c24.171875-16.109375 44.472656-37.703125 59.035156-62.871094 16.507813-28.53125 25.234376-61.09375 25.234376-94.164062 0-103.988282-84.601563-188.589844-188.589844-188.589844zm0 0" fill="#fedc56"/><path d="m188.589844 0c-103.988282 0-188.589844 84.601562-188.589844 188.589844 0 33.070312 8.726562 65.632812 25.234375 94.164062 14.5625 25.167969 34.863281 46.761719 59.035156 62.871094v31.289062h208.640625v-31.289062c24.171875-16.109375 44.472656-37.703125 59.035156-62.871094 16.507813-28.53125 25.234376-61.09375 25.234376-94.164062 0-103.988282-84.601563-188.589844-188.589844-188.589844zm0 0" fill="#fff16c"/><path d="m188.589844 0v376.914062l72.800781 62.269532 31.519531-62.269532v-31.289062c24.171875-16.109375 44.472656-37.703125 59.035156-62.871094 16.507813-28.53125 25.234376-61.09375 25.234376-94.164062 0-103.988282-84.601563-188.589844-188.589844-188.589844zm0 0" fill="#fedc56"/><path d="m203.609375 72.96875c-2.902344-2.78125-4.785156-4.433594-5.214844-4.804688-5.628906-4.859374-13.980469-4.859374-19.609375 0-.429687.371094-2.3125 2.023438-5.214844 4.804688-8.042968 7.742188-23.835937 24.253906-37.746093 46.597656-5.285157 8.492188-10.292969 17.824219-14.519531 27.835938-2.433594 5.808594-4.617188 11.847656-6.417969 18.085937-3.355469 11.617188-5.40625 23.90625-5.507813 36.683594-.011718.328125-.011718.667969-.011718 1 0 63.058594 47.949218 114.550781 64.203124 130.191406 2.902344 2.785157 4.785157 4.4375 5.214844 4.808594 2.816406 2.433594 6.308594 3.644531 9.804688 3.644531s6.988281-1.210937 9.804687-3.644531c.429688-.371094 2.320313-2.023437 5.214844-4.808594 16.253906-15.640625 64.199219-67.132812 64.199219-130.191406s-47.945313-114.558594-64.199219-130.203125zm0 0" fill="#00fe92"/><path d="m203.609375 333.363281c16.253906-15.640625 64.199219-67.132812 64.199219-130.191406s-47.945313-114.558594-64.199219-130.203125c-2.902344-2.78125-4.785156-4.433594-5.214844-4.804688-2.816406-2.429687-6.308593-3.644531-9.804687-3.644531v277.296875c3.496094 0 6.988281-1.214844 9.804687-3.648437.429688-.367188 2.320313-2.019531 5.214844-4.804688zm0 0" fill="#00db7f"/><path d="m203.609375 72.96875v335.371094c0 8.300781-6.726563 15.019531-15.019531 15.019531-8.292969 0-15.019532-6.71875-15.019532-15.019531v-143.179688l-64.191406-62.988281c.101563-12.777344 2.152344-25.066406 5.507813-36.683594l58.683593 57.582031v-24.425781l-52.265624-51.242187c4.226562-10.011719 9.234374-19.34375 14.519531-27.835938l37.746093 37v-83.597656c2.902344-2.78125 4.785157-4.433594 5.214844-4.804688 5.628906-4.859374 13.980469-4.859374 19.609375 0 .429688.371094 2.3125 2.023438 5.214844 4.804688zm0 0" fill="#01cab2"/><path d="m203.609375 408.339844v-335.371094c-2.902344-2.78125-4.785156-4.433594-5.214844-4.804688-2.816406-2.429687-6.308593-3.644531-9.804687-3.644531v358.839844c8.292968 0 15.019531-6.71875 15.019531-15.019531zm0 0" fill="#019784"/><path d="m84.269531 437c0 8.296875 6.722657 15.023438 15.019531 15.023438h178.601563c8.296875 0 15.019531-6.726563 15.019531-15.023438v-60.085938h-208.640625zm0 0" fill="#1a659e"/><path d="m188.589844 376.914062v75.109376h89.300781c8.296875 0 15.019531-6.726563 15.019531-15.023438v-60.085938zm0 0" fill="#0d4168"/></svg>